<svg viewBox="-53 0 512 512" xmlns="http://www.w3.org/2000/svg"><path fill="#FFF" d="m183.886719 384v-50h-50c-11.042969 0-20-8.953125-20-20s8.957031-20 20-20h50v-50c0-11.046875 8.957031-20 20-20 11.046875 0 20 8.953125 20 20v50h50c11.046875 0 20 8.953125 20 20s-8.953125 20-20 20h-50v50c0 11.046875-8.953125 20-20 20-11.042969 0-20-8.953125-20-20zm182-51v-203c0-22.054688-17.941407-40-40-40h-63v10c0 33.085938-26.914063 60-60 60-33.082031 0-60-26.914062-60-60v-10h-62.886719c-22.058594 0-40 17.945312-40 40v302c0 22.054688 17.941406 40 40 40h245.886719c22.058593 0 40-17.945312 40-40 0-11.046875 8.957031-20 20-20 11.046875 0 20 8.953125 20 20 0 44.113281-35.886719 80-80 80h-245.886719c-44.113281 0-80-35.886719-80-80v-302c0-44.113281 35.886719-80 80-80h62.890625v-30c0-11.046875 8.953125-20 20-20h80c11.042969 0 20 8.953125 20 20v30h63c44.109375 0 80 35.886719 80 80v203c0 11.046875-8.957031 20-20 20-11.046875 0-20.003906-8.953125-20.003906-20zm-143-293h-40v60c0 11.027344 8.972656 20 20 20 11.027343 0 20-8.972656 20-20zm0 0"/></svg>