<svg id="Capa_1" enable-background="new 0 0 511.434 511.434" height="512" viewBox="0 0 511.434 511.434" width="512" xmlns="http://www.w3.org/2000/svg">
    <g>
        <path fill="#FFF" d="m511.434 163.046-163.046-163.046-84.602 84.602 14.122 14.122-249.989 249.99c-18.004 18.003-27.919 41.939-27.919 67.4s9.915 49.397 27.919 67.4c18.003 18.004 41.939 27.919 67.4 27.919s49.397-9.915 67.4-27.919l249.99-249.989 14.122 14.122zm-157.945-31.167 42.176-42.175 26.064 26.064-42.175 42.176zm89.454 5.102 26.065 26.065-42.176 42.176-26.064-26.064zm-94.555-94.555 26.065 26.065-42.176 42.175-26.064-26.064zm-125.345 153.589 92.376 92.376-91.841 91.84-92.375-92.375zm-81.536 266.287c-12.337 12.337-28.74 19.132-46.188 19.132s-33.851-6.795-46.188-19.132-19.131-28.74-19.131-46.188 6.795-33.851 19.132-46.188l60.858-60.858 92.375 92.375zm195.125-195.124-92.376-92.376 54.865-54.865 92.376 92.376z"/>
        <path fill="#FFF" d="m187.997 302.224 21.213 21.213 14.101-14.101 14.1 14.101 21.213-21.213-14.101-14.101 14.101-14.101-21.213-21.212-14.1 14.1-14.101-14.1-21.213 21.212 14.101 14.101z"/>
    </g>
</svg>