<?xml version="1.0" encoding="iso-8859-1"?>
<svg version="1.1" id="Layer_1" xmlns="http://www.w3.org/2000/svg" xmlns:xlink="http://www.w3.org/1999/xlink" x="0px" y="0px"
	 viewBox="0 0 392.566 392.566" style="enable-background:new 0 0 392.566 392.566;" xml:space="preserve">
<rect x="79.355" y="68.968" transform="matrix(-0.7072 -0.707 0.707 -0.7072 92.4216 222.8208)" style="fill:#FFC10D;" width="25.988" height="46.61"/>
<path style="fill:#FFFFFF;" d="M235.138,175.969l-80.873-80.937c-4.267-4.267-11.119-4.267-15.451,0l-43.766,43.766
	c-4.267,4.267-4.267,11.119,0,15.451l21.786,21.786h118.303V175.969z"/>
<path style="fill:#56ACE0;" d="M300.754,241.521l-43.83-43.83H138.685l102.917,102.917c4.267,4.267,11.119,4.267,15.451,0
	l43.766-43.766C305.02,252.769,305.02,245.852,300.754,241.521z"/>
<path style="fill:#194F82;" d="M388.026,308.301c-4.396-3.168-10.602-2.263-14.481,1.616l-24.048,24.048l-47.451-47.451
	l24.178-24.178c7.24-7.24,7.24-18.941,0-26.182L159.566,69.626c-7.24-7.24-18.941-7.24-26.182,0l0,0l-20.622-20.622
	c-7.24-7.24-18.941-7.24-26.182,0L75.525,60.058L19.089,3.622C15.21-0.257,9.069-1.162,4.608,2.006
	c-5.624,4.008-6.077,11.895-1.487,16.549L60.01,75.444L48.956,86.499c-7.24,7.24-7.24,18.941,0,26.182l20.622,20.622
	c-7.24,7.24-7.24,18.941,0,26.182l166.594,166.594c7.24,7.24,18.941,7.24,26.182,0l24.178-24.178l47.451,47.451L309.998,373.4
	c-3.879,3.879-4.784,10.02-1.616,14.481c4.008,5.624,11.895,6.077,16.614,1.422l64.388-64.388
	C394.039,320.196,393.586,312.309,388.026,308.301z M66.669,99.622l32.905-32.905l18.295,18.295l-32.905,32.905L66.669,99.622z
	 M95.049,154.183c-4.267-4.267-4.267-11.119,0-15.451l43.766-43.766c4.267-4.267,11.119-4.267,15.451,0l80.873,80.873H116.899
	L95.049,154.183z M257.117,300.737c-4.267,4.267-11.119,4.267-15.451,0L138.685,197.755h118.238l43.83,43.83
	c4.267,4.267,4.267,11.119,0,15.451L257.117,300.737z"/>
</svg>
